<svg id="Layer_1" data-name="Layer 1" xmlns="http://www.w3.org/2000/svg" viewBox="0 0 720 720">
  <defs>
    <style>.cls-1{fill:#161834;}</style>
  </defs>
  <title>personal logo</title>
  <path class="cls-1" d="M340.18,530.1a169,169,0,0,0,92.95-27.68,199,199,0,0,1-328-80.2,215.35,215.35,0,0,1-9.92-63.79,1.27,1.27,0,0,1,0-.39c0-1.07,0-2.12,0-3.19C98,247.35,186,161,294.19,161a198.4,198.4,0,0,1,140.46,58,169.86,169.86,0,1,0-94.47,311Z" />
  <path class="cls-1" d="M287.55,125.82a232.71,232.71,0,0,0-128,38.12A273,273,0,0,1,350.86,86.09c121.35,0,224.3,78.93,260.24,188.25a296.74,296.74,0,0,1,13.66,87.82,2.44,2.44,0,0,1,0,.54c0,1.47,0,2.92,0,4.39-3.77,148-125,266.82-273.85,266.82A273.18,273.18,0,0,1,157.49,554,232.69,232.69,0,0,0,287.55,593.5c129.15,0,233.82-104.7,233.82-233.85S416.7,125.82,287.55,125.82Z" />
</svg>
